<svg xmlns="http://www.w3.org/2000/svg" width="13" height="10" viewBox="0 0 13 10">
    <g fill="none" fill-rule="evenodd">
        <g fill="#FFF" fill-rule="nonzero">
            <g>
                <g>
                    <path d="M5.28.22c.267.266.29.683.073.976l-.073.084L2.562 4h8.474c.414 0 .75.336.75.75 0 .38-.282.694-.649.744l-.101.006H2.56l2.72 2.72c.267.267.29.684.073.977l-.073.084c-.266.267-.683.29-.976.073L4.22 9.28l-4-4-.033-.035-.034-.042.067.077c-.04-.039-.074-.082-.103-.127l-.029-.05-.017-.033C.06 5.045.05 5.018.04 4.99l-.008-.025C.012 4.898 0 4.826 0 4.75c0-.038.003-.076.009-.114l.005-.03c.005-.026.012-.052.02-.077l.01-.032c.01-.026.02-.05.032-.075l.013-.027c.015-.027.03-.053.048-.077l.01-.013c.025-.034.048-.06.073-.085l4-4c.293-.292.767-.292 1.06 0z" transform="translate(-867 -1183) translate(724 1165) matrix(-1 0 0 1 155.036 18.25)"/>
                </g>
            </g>
        </g>
    </g>
</svg>
