<svg xmlns="http://www.w3.org/2000/svg" width="118" height="164" viewBox="0 0 118 164">
    <g fill="none" fill-rule="evenodd">
        <g fill="#F6F6F6" fill-rule="nonzero">
            <path d="M27.631 291.52c29.226-25.608 71.588-20.145 73.559-19.804 1.642.342 2.955 1.707 2.955 3.414v7.512h10.837c1.642 0 3.284 1.366 2.955 3.415v120.529c0 2.048-1.313 3.414-3.284 3.414H-59.063c-1.97 0-3.284-1.366-3.284-3.414v-120.87c0-2.05 1.314-3.415 3.284-3.415h10.508v-7.17c0-1.708 1.314-3.073 2.956-3.415 1.642 0 44.332-5.463 73.23 19.804zm-76.514-2.049h-6.896v113.7h71.26c-28.57-14.34-60.095-11.95-60.423-11.95-.986 0-1.97-.342-2.956-1.025-.657-.683-.985-1.365-.985-2.39v-98.335zm160.581 0h-7.553v98.335c0 .683-.328 1.707-.985 2.39s-1.642 1.025-2.627 1.025c-.329 0-31.854-2.39-60.423 11.95h71.588v-113.7zm-14.449-10.926c-9.852-1.024-43.675-1.707-66.334 19.12v103.116c26.27-16.048 56.154-16.73 66.334-16.39zm-72.902 18.78c-22.659-20.487-56.482-19.804-66.334-19.122v106.189h2.956c12.478 0 39.406 1.707 63.378 15.706zM28.82 229c1.31 0 2.292.685 2.946 1.713l5.894 12.336 13.095 1.713c1.31.343 2.292 1.028 2.62 2.399.654 1.028.327 2.398-.655 3.426l-9.167 9.595 2.291 13.363c.328 1.371-.327 2.742-1.31 3.427-1.309.685-2.618 1.028-3.6.343l-11.787-6.168-11.459 6.51c-.655.343-.982.343-1.637.343s-1.31-.343-1.964-.685c-.982-.686-1.637-2.056-1.31-3.427l1.965-13.364-8.84-9.251c-.982-.686-1.31-2.056-.982-3.427.327-1.37 1.31-2.056 2.619-2.398l12.768-2.056 5.566-12.336c.655-1.37 1.637-2.056 2.947-2.056zm0 10.965l-3.929 7.538c-.327 1.028-1.31 1.714-2.292 2.056l-7.53 1.371 5.893 5.825c.655.686 1.31 2.056.982 3.084l-1.31 8.567 7.204-4.112c.982-.343 1.964-.343 2.946 0l7.203 3.769-1.637-8.566c0-1.028.327-2.4.982-3.084l5.893-6.168-8.185-1.028c-1.31 0-2.291-.686-2.619-1.714l-3.601-7.538zm44.768-16.898c1.296-.342 2.268.683 2.916 1.708l4.212 8.879 9.397 1.366c.972 0 2.268 1.025 2.592 2.39.648 1.025.324 2.391-.648 3.416l-6.48 7.172 1.62 9.562c.324 1.366-.324 2.732-1.296 3.415-1.296.683-2.592 1.025-3.565.342l-8.424-4.44-8.1 4.781c-.648.342-.972.342-1.62.342-.648 0-1.296-.342-1.944-.683-.972-.683-1.62-2.05-1.296-3.415l1.62-9.904-6.804-6.49c-.972-.682-1.296-2.048-.972-3.414.324-1.366 1.296-2.05 2.592-2.39l9.396-1.708 3.888-8.88c.648-1.366 1.62-2.049 2.916-2.049zm-90.812 0c.988-.342 2.306.683 2.964 1.708l4.282 8.879 9.55 1.366c.988 0 2.305 1.025 2.964 2.39.659 1.025.33 2.391-.659 3.416l-6.586 7.172 1.646 9.562c.33 1.366-.329 2.732-1.317 3.415-1.317.683-2.635 1.025-3.623.342l-8.562-4.44-8.233 4.781c-.659.342-.988.342-1.647.342-.658 0-1.317-.342-1.976-.683-.988-.683-1.646-2.05-1.317-3.415l1.317-9.904-6.916-6.49c-.987-.682-1.317-2.048-.987-3.414.329-1.366 1.317-2.05 2.634-2.39l9.55-1.708 3.952-8.88c.66-1.366 1.647-2.049 2.964-2.049zm90.812 10.929l-1.944 4.44c-.324 1.024-1.296 1.707-2.268 1.707l-4.536.683 3.24 3.415c.648.683 1.296 2.05.972 3.074l-.648 4.781 4.536-2.05c.972-.34 1.944-.34 2.916 0l3.888 2.05-.972-4.781c0-1.025.324-2.39.972-3.074l3.24-3.415-4.536-.683c-1.296 0-2.268-.683-2.592-1.708l-2.268-4.44zm-90.812-.342l-1.976 4.44c-.329 1.024-1.317 1.707-2.305 2.049l-4.61.683 3.293 3.415c.658.683 1.317 2.05.988 3.074l-.659 4.781 4.281-2.05c.988-.34 1.976-.34 2.964 0l3.952 2.05-.988-4.781c0-1.025.33-2.39.988-3.074l3.293-3.415-4.28-.683c-1.318 0-1.977-.683-2.635-1.708l-2.306-4.781z" transform="translate(-739 -1721) translate(739 1498)"/>
        </g>
    </g>
</svg>
