<svg xmlns="http://www.w3.org/2000/svg" width="22" height="22" viewBox="0 0 22 22">
    <g fill="none" fill-rule="evenodd">
        <g fill="#FFF" fill-rule="nonzero">
            <g>
                <g>
                    <path d="M10-.75c5.937 0 10.75 4.813 10.75 10.75S15.937 20.75 10 20.75-.75 15.937-.75 10 4.063-.75 10-.75zm0 1.5C4.891.75.75 4.891.75 10s4.141 9.25 9.25 9.25 9.25-4.141 9.25-9.25S15.109.75 10 .75zM6.583 5.333c0-.579.628-.94 1.128-.648l8 4.667c.496.29.496 1.006 0 1.296l-8 4.667c-.5.291-1.128-.07-1.128-.648zm1.5 1.306v6.721L13.845 10 8.083 6.639z" transform="translate(-268 -800) translate(269 800) translate(0 1)"/>
                </g>
            </g>
        </g>
    </g>
</svg>
