<svg xmlns="http://www.w3.org/2000/svg" width="180" height="55" viewBox="0 0 180 55">
    <g fill="none" fill-rule="evenodd">
        <g fill="#FFF">
            <g>
                <g>
                    <path d="M37.331 11.937L37.331 7.207 43.729 7.207 44.8 4.026 33.385 4.026 33.385 22.692 37.331 22.692 37.331 15.175 42.489 15.175 43.56 11.937zM57.822 22.692L57.822 10.895 67.18 22.692 69.379 22.692 69.379 4.026 65.827 4.026 65.827 14.781 57.4 4.026 52.383 4.026 54.327 6.447 54.327 22.692zM88.799 22.692L92.322 22.692 92.322 10.895 101.652 22.692 103.85 22.692 103.85 4.026 100.299 4.026 100.299 14.781 91.871 4.026 86.882 4.026 88.799 6.447zM118.31 15.738c-.198-.507-.48-.957-.79-1.352-.338-.394-.705-.732-1.1-1.041-.422-.31-.845-.535-1.268-.732l-2.903-1.295c-.563-.254-1.043-.563-1.437-.93-.395-.365-.592-.844-.62-1.379-.028-.647.225-1.154.733-1.52.535-.366 1.212-.563 2.057-.563.367 0 .733.028 1.1.056.366.028.733.113 1.099.253.366.113.76.31 1.155.535.395.226.874.535 1.353.901l-.169-3.744c-.254-.14-.564-.254-.93-.394-.366-.113-.761-.226-1.184-.338-.423-.085-.845-.17-1.296-.254-.451-.056-.874-.112-1.269-.112-.986 0-1.888.14-2.706.394-.817.253-1.521.648-2.114 1.126-.591.479-1.042 1.07-1.324 1.774-.31.704-.451 1.464-.395 2.337.057 1.041.366 1.97.958 2.759.592.816 1.579 1.52 2.904 2.14l2.508 1.154c.62.281 1.1.563 1.41.872.338.31.507.76.535 1.324 0 .281-.028.563-.17.816-.112.253-.31.479-.535.704-.253.197-.535.366-.845.478-.31.113-.677.17-1.043.17-1.156 0-2.199-.141-3.157-.451-.93-.31-1.776-.676-2.508-1.098l.563 3.998c.874.31 1.776.506 2.678.563.902.084 1.804.112 2.706.112.93 0 1.775-.14 2.565-.394.79-.281 1.465-.647 2.029-1.154.564-.507 1.015-1.098 1.325-1.802.31-.704.45-1.464.395-2.308 0-.564-.113-1.127-.31-1.605M46.492 7.742L50.438 7.742 50.438 4.026 46.492 4.026zM46.492 22.692L50.438 22.692 50.438 9.291 46.492 9.291zM79.582 16.639L76.538 16.639 78.765 10.473 83.049 22.692 87.333 22.692 80.597 3.998 76.312 3.998 76.989 5.715 70.506 22.692 74.396 22.692 75.523 19.482 80.484 19.482zM178.571 4.026L176.119 4.026 174.963 4.026 169.185 11.627 163.407 4.026 162.251 4.026 159.771 4.026 158.446 4.026 159.771 5.743 159.771 22.692 160.194 22.692 163.745 22.692 163.745 10.952 169.157 18.074 169.185 18.074 174.596 10.952 174.596 22.692 174.625 22.692 178.148 22.692 178.571 22.692 178.571 5.743 179.895 4.026zM152.471 7.742L156.445 7.742 156.445 4.026 152.471 4.026zM152.471 22.692L156.445 22.692 156.445 9.291 152.471 9.291zM147.115 5.349L143.197 16.779 139.308 4.026 134.854 4.026 141.112 23.03 144.24 23.03 151.343 4.026 145.791 4.026zM126.709 14.809L131.782 14.809 132.825 11.684 126.709 11.684 126.709 7.207 132.994 7.207 134.065 4.026 122.734 4.026 122.734 16.356 118.676 11.712 118.676 12.331 122.734 16.973 122.734 16.977 127.724 22.692 127.734 22.692 131.303 26.774 131.838 26.774 128.271 22.692 133.332 22.692 134.488 19.454 126.709 19.454zM14.885 18.826L19.569 14.148 14.885 9.47 10.201 14.148zM21.237 16.78L21.237 20.524 17.517 20.524 12.302 25.732 14.867 28.294 19.038 24.128 24.901 24.128 24.901 18.243 26.085 17.061 23.492 14.527zM24.873 4.139L18.982 4.139 17.798 2.956 15.233 5.518 17.488 7.77 21.237 7.77 21.237 11.487 26.452 16.695 29.016 14.133 24.873 9.994zM8.441 11.515L8.441 7.77 12.161 7.77 17.376 2.562 14.782 0 10.639 4.139 4.776 4.167 4.776 10.051 3.593 11.233 6.158 13.795zM12.218 20.552L8.469 20.552 8.469 16.836 3.254 11.627.69 14.189 4.861 18.356 4.861 24.184 10.752 24.184 11.936 25.366 14.501 22.804z" transform="translate(-20 -20) translate(20 20)"/>
                </g>
                <text font-family="Ubuntu-Bold, Ubuntu" font-size="9.8" font-weight="bold" letter-spacing=".212" transform="translate(-20 -20) translate(20 20)">
                    <tspan x="148.079" y="40.005">İNSAN </tspan> <tspan x="124.308" y="53.005">DEĞERLERİ</tspan>
                </text>
            </g>
        </g>
    </g>
</svg>
