<svg xmlns="http://www.w3.org/2000/svg" width="201" height="46" viewBox="0 0 201 46">
    <g fill="none" fill-rule="evenodd">
        <g fill="#FFF">
            <g>
                <g>
                    <path d="M41.52 13.273L41.52 8.014 48.636 8.014 49.827 4.477 37.131 4.477 37.131 25.231 41.52 25.231 41.52 16.873 47.256 16.873 48.448 13.273zM64.31 25.231L64.31 12.115 74.717 25.231 77.163 25.231 77.163 4.477 73.212 4.477 73.212 16.435 63.84 4.477 58.26 4.477 60.423 7.169 60.423 25.231zM98.761 25.231L102.68 25.231 102.68 12.115 113.056 25.231 115.501 25.231 115.501 4.477 111.552 4.477 111.552 16.435 102.178 4.477 96.63 4.477 98.761 7.169zM131.583 17.5c-.22-.564-.533-1.065-.878-1.503-.376-.439-.783-.814-1.222-1.159-.47-.344-.94-.595-1.411-.814l-3.229-1.44c-.627-.281-1.16-.626-1.599-1.033-.439-.407-.658-.939-.69-1.534-.03-.72.251-1.283.816-1.69.595-.407 1.348-.626 2.288-.626.408 0 .815.031 1.223.062.407.032.815.126 1.222.282.408.125.847.345 1.286.595.438.25.972.595 1.504 1.002l-.188-4.164c-.282-.156-.627-.281-1.034-.438-.407-.125-.847-.25-1.317-.376-.47-.094-.94-.187-1.442-.281-.501-.063-.972-.126-1.41-.126-1.097 0-2.1.157-3.01.439-.909.281-1.692.72-2.351 1.252-.658.532-1.16 1.19-1.473 1.972-.345.783-.502 1.628-.44 2.598.064 1.159.408 2.192 1.066 3.068.659.908 1.756 1.69 3.23 2.38l2.79 1.283c.689.313 1.222.626 1.567.97.376.344.564.845.595 1.471 0 .313-.031.627-.188.908-.125.282-.345.532-.595.783-.282.219-.596.407-.94.532-.346.125-.753.188-1.16.188-1.286 0-2.446-.157-3.512-.501-1.034-.344-1.975-.751-2.79-1.22l.628 4.444c.971.345 1.974.564 2.978.626 1.003.094 2.006.126 3.009.126 1.034 0 1.975-.157 2.853-.439.878-.313 1.63-.72 2.257-1.283.627-.564 1.128-1.221 1.473-2.004.345-.782.502-1.627.44-2.567 0-.626-.127-1.252-.346-1.784M51.708 8.609L56.097 8.609 56.097 4.476 51.708 4.476zM51.708 25.231L56.097 25.231 56.097 10.33 51.708 10.33zM88.511 18.501L85.125 18.501 87.602 11.645 92.367 25.231 97.131 25.231 89.639 4.445 84.874 4.445 85.627 6.355 78.417 25.231 82.743 25.231 83.997 21.663 89.514 21.663zM198.605 4.476L195.878 4.476 194.593 4.476 188.166 12.929 181.74 4.476 180.455 4.476 177.696 4.476 176.223 4.476 177.696 6.386 177.696 25.231 178.167 25.231 182.116 25.231 182.116 12.177 188.135 20.097 188.166 20.097 194.185 12.177 194.185 25.231 194.217 25.231 198.135 25.231 198.605 25.231 198.605 6.386 200.079 4.476zM169.577 8.609L173.997 8.609 173.997 4.476 169.577 4.476zM169.577 25.232L173.997 25.232 173.997 10.331 169.577 10.331zM163.621 5.948L159.264 18.657 154.937 4.477 149.984 4.477 156.944 25.607 160.423 25.607 168.323 4.477 162.148 4.477zM140.925 16.466L146.567 16.466 147.727 12.991 140.925 12.991 140.925 8.014 147.916 8.014 149.107 4.477 136.505 4.477 136.505 18.187 131.99 13.023 131.99 13.711 136.505 18.873 136.505 18.877 142.054 25.231 142.065 25.231 146.035 29.77 146.63 29.77 142.662 25.231 148.292 25.231 149.577 21.631 140.925 21.631zM16.555 20.933L21.764 15.732 16.555 10.53 11.346 15.732zM23.62 18.657L23.62 22.821 19.482 22.821 13.683 28.612 16.535 31.461 21.174 26.828 27.695 26.828 27.695 20.285 29.011 18.97 26.128 16.153zM27.664 4.602L21.112 4.602 19.795 3.287 16.943 6.136 19.45 8.64 23.62 8.64 23.62 12.772 29.419 18.563 32.272 15.715 27.664 11.113zM9.388 12.803L9.388 8.64 13.526 8.64 19.325 2.849 16.441 0 11.833 4.602 5.312 4.633 5.312 11.176 3.996 12.49 6.848 15.339zM13.588 22.852L9.419 22.852 9.419 18.72 3.619 12.929.767 15.777 5.406 20.41 5.406 26.89 11.958 26.89 13.275 28.205 16.128 25.356z" transform="translate(-229 -34) translate(229 34)"/>
                </g>
                <text font-family="Ubuntu-Bold, Ubuntu" font-size="11" font-weight="bold" letter-spacing=".238" transform="translate(-229 -34) translate(229 34)">
                    <tspan x="99.174" y="44">İNSAN DEĞERLERİ</tspan>
                </text>
            </g>
        </g>
    </g>
</svg>
