<svg xmlns="http://www.w3.org/2000/svg" width="103" height="165" viewBox="0 0 103 165">
    <g fill="none" fill-rule="evenodd">
        <g fill="#F6F6F6" fill-rule="nonzero">
            <path d="M-80.345 358l5.529 5.846-19.55 20.672c-.732.776-1.727 1.212-2.764 1.212h-12.45c-1.904 5.695-7.411 9.112-13.041 8.09-5.63-1.021-9.746-6.184-9.746-12.225 0-6.04 4.115-11.203 9.746-12.224 5.63-1.022 11.137 2.395 13.042 8.09h10.83L-80.344 358zm130.96 0l18.419 19.484h10.84c1.647-4.947 6.06-8.263 11.018-8.279 5.959-.011 10.977 4.71 11.662 10.97.686 6.262-3.18 12.07-8.983 13.5-5.803 1.43-11.697-1.975-13.697-7.912h-12.46c-1.038 0-2.033-.436-2.767-1.213l-19.565-20.697L50.615 358zm40.277 19.484c-2.161 0-3.913 1.853-3.913 4.14 0 2.286 1.752 4.139 3.913 4.139 2.16-.002 3.912-1.854 3.913-4.14 0-2.286-1.752-4.139-3.913-4.139zm-211.48-.023c-2.16 0-3.91 1.851-3.91 4.134 0 2.284 1.75 4.135 3.91 4.135 2.158-.002 3.908-1.852 3.91-4.135 0-2.283-1.751-4.134-3.91-4.134zM-4.248 247c1.927 0 3.615 1.32 4.165 3.229l.054.206 1.9 7.916c3.223.995 6.346 2.315 9.323 3.941l.741.413 6.717-4.2c1.65-1.037 3.749-.813 5.161.527l.154.153 12.306 12.828c1.36 1.417 1.659 3.589.761 5.341l-.108.2-4.032 7.003c1.608 3.078 2.924 6.312 3.931 9.655l.245.838 7.593 1.98c1.87.487 3.202 2.194 3.291 4.184l.005.215v18.142c0 2.01-1.267 3.769-3.097 4.342l-.198.057-7.592 1.98c-.955 3.36-2.221 6.616-3.78 9.72l-.397.773 4.029 7.004c.99 1.719.777 3.901-.5 5.375l-.153.167-12.304 12.828c-1.362 1.416-3.447 1.728-5.13.79l-.185-.11-6.717-4.204c-2.952 1.677-6.054 3.05-9.261 4.1l-.804.255-1.899 7.915c-.467 1.95-2.104 3.338-4.013 3.432l-.206.005H-21.65c-1.928 0-3.617-1.322-4.166-3.232l-.055-.207-1.899-7.915c-3.224-.995-6.346-2.316-9.324-3.941l-.74-.413-6.718 4.203c-1.65 1.034-3.747.81-5.16-.527l-.155-.153-12.304-12.828c-1.36-1.417-1.659-3.589-.761-5.341l.108-.2 4.032-7.003c-1.608-3.078-2.924-6.312-3.931-9.655l-.245-.838-7.592-1.98c-1.87-.487-3.203-2.194-3.292-4.184l-.005-.215V301.43c0-2.01 1.268-3.772 3.1-4.344l.198-.057 7.592-1.98c.955-3.36 2.222-6.616 3.781-9.72l.396-.773-4.032-7.002c-.99-1.719-.777-3.901.5-5.375l.153-.167 12.304-12.828c1.362-1.416 3.447-1.728 5.13-.79l.185.11 6.717 4.204c2.953-1.677 6.054-3.05 9.261-4.1l.804-.255 1.899-7.915c.467-1.95 2.104-3.338 4.013-3.432l.206-.005h17.402zm-3.399 9.071H-18.25l-1.697 7.067c-.393 1.64-1.628 2.916-3.204 3.313-4.395 1.104-8.598 2.92-12.453 5.382-1.316.84-2.954.887-4.307.14l-.2-.118-6-3.756-7.505 7.824 3.603 6.254c.835 1.448.827 3.26-.021 4.7-2.362 4.02-4.104 8.4-5.162 12.983-.365 1.572-1.5 2.818-2.975 3.282l-.203.058-6.781 1.772v11.056l6.778 1.769c1.573.41 2.797 1.697 3.178 3.34 1.059 4.583 2.8 8.964 5.162 12.983.805 1.368.853 3.072.14 4.48l-.118.22-3.603 6.254 7.504 7.824 6-3.756c1.388-.87 3.126-.862 4.507.022 3.856 2.462 8.058 4.278 12.454 5.382 1.507.38 2.702 1.564 3.147 3.101l.056.212 1.7 7.07h10.604l1.697-7.067c.393-1.64 1.628-2.916 3.204-3.313 4.395-1.104 8.598-2.92 12.453-5.382 1.315-.844 2.955-.892 4.307-.14l.201.118 5.999 3.756 7.505-7.824-3.603-6.254c-.835-1.448-.826-3.26.021-4.7 2.362-4.02 4.104-8.4 5.163-12.983.364-1.572 1.5-2.818 2.974-3.282l.203-.058 6.781-1.772v-11.056l-6.778-1.769c-1.573-.41-2.797-1.697-3.178-3.34-1.059-4.583-2.8-8.964-5.162-12.983-.805-1.368-.853-3.072-.14-4.48l.119-.22 3.602-6.254-7.504-7.824-6 3.756c-1.388.87-3.126.862-4.507-.022-3.856-2.462-8.058-4.278-12.454-5.382-1.507-.38-2.702-1.564-3.147-3.101l-.056-.212-1.7-7.07zM-94 320v8.25h-10.17l-6.713 7.041-.101-.106c.813 1.687 1.242 3.55 1.253 5.44-.007 6.831-5.285 12.367-11.798 12.375-6.515 0-11.798-5.54-11.798-12.375s5.283-12.375 11.798-12.375c1.803.012 3.578.462 5.187 1.315l-.102-.106 7.866-8.25c.737-.774 1.737-1.209 2.78-1.209H-94zm169.104 0c1.043 0 2.043.435 2.78 1.209l7.866 8.25-.101.106c1.608-.853 3.383-1.303 5.186-1.315 6.516 0 11.798 5.54 11.798 12.375S97.35 353 90.835 353s-11.798-5.54-11.798-12.375c.011-1.89.44-3.753 1.253-5.44l-.101.106-6.713-7.041h-10.17V320zm-196.633 16.5c-2.171.001-3.93 1.847-3.932 4.125 0 2.278 1.76 4.125 3.932 4.125 2.172 0 3.933-1.847 3.933-4.125s-1.76-4.125-3.933-4.125zm212.364 0c-2.172 0-3.933 1.847-3.933 4.125s1.76 4.125 3.933 4.125c2.171-.001 3.931-1.847 3.932-4.125 0-2.278-1.76-4.125-3.932-4.125zM-12.95 278.75c16.81.021 30.434 14.224 30.454 31.75 0 17.535-13.635 31.75-30.454 31.75-16.82 0-30.454-14.215-30.454-31.75s13.635-31.75 30.454-31.75zm0 9.071c-12.014 0-21.753 10.154-21.753 22.679 0 12.525 9.74 22.679 21.753 22.679 12.008-.015 21.739-10.16 21.753-22.679 0-12.525-9.74-22.679-21.753-22.679zM-121.529 263c6.516 0 11.798 5.54 11.798 12.375-.01 1.89-.44 3.753-1.253 5.44l.101-.106 6.713 7.041H-94V296h-11.798c-1.043 0-2.043-.435-2.78-1.209l-7.866-8.25.102-.106c-1.609.853-3.384 1.303-5.187 1.315-6.515 0-11.798-5.54-11.798-12.375S-128.044 263-121.529 263zm212.364 0c6.516 0 11.798 5.54 11.798 12.375S97.35 287.75 90.835 287.75c-1.803-.012-3.578-.462-5.187-1.315l.102.106-7.866 8.25c-.737.774-1.737 1.209-2.78 1.209H63.306v-8.25h10.17l6.713-7.041.102.106c-.814-1.687-1.243-3.55-1.254-5.44.007-6.831 5.285-12.367 11.798-12.375zm-212.364 8.25c-2.171.001-3.93 1.847-3.932 4.125 0 2.278 1.76 4.125 3.932 4.125 2.172 0 3.933-1.847 3.933-4.125s-1.76-4.125-3.933-4.125zm212.364 0c-2.172 0-3.933 1.847-3.933 4.125s1.76 4.125 3.933 4.125c2.171-.001 3.931-1.847 3.932-4.125 0-2.278-1.76-4.125-3.932-4.125zm-214.14-48.925c5.803-1.43 11.696 1.975 13.696 7.912h12.46c1.038 0 2.034.436 2.767 1.213l19.566 20.697L-80.35 258l-18.42-19.484h-10.84c-1.647 4.947-6.06 8.263-11.018 8.279-5.959.01-10.976-4.71-11.662-10.97-.685-6.262 3.18-12.07 8.983-13.5zm203.15 7.945c1.904-5.695 7.411-9.112 13.042-8.09 5.63 1.021 9.746 6.184 9.746 12.225 0 6.04-4.116 11.203-9.746 12.224-5.63 1.022-11.138-2.395-13.042-8.09H69.013L50.61 258l-5.528-5.846 19.548-20.672c.733-.776 1.728-1.212 2.765-1.212zm11.008 0c-2.158.002-3.908 1.852-3.91 4.135 0 2.283 1.751 4.134 3.91 4.134 2.16 0 3.91-1.851 3.91-4.134 0-2.284-1.75-4.135-3.91-4.135zm-211.48-.033c-2.16.002-3.912 1.854-3.913 4.14 0 2.286 1.752 4.139 3.913 4.139 2.16 0 3.913-1.853 3.913-4.14 0-2.286-1.752-4.139-3.913-4.139z" transform="translate(-484 -1720) translate(484 1498)"/>
        </g>
    </g>
</svg>
