<svg xmlns="http://www.w3.org/2000/svg" width="149" height="155" viewBox="0 0 149 155">
    <g fill="none" fill-rule="evenodd">
        <g fill="#F6F6F6" fill-rule="nonzero">
            <g>
                <path d="M-75.033 282.825l23.137 13.684c.682.39 1.193 1.03 1.466 1.812l5.725 16.776c.886 2.595 2.657 4.763 4.94 6.149l20.923 12.333 13.018 8.068c.374 1.99 1.192 3.838 2.453 5.367L7.806 360.52c.511.604.784 1.386.784 2.203v27.723c0 1.955 1.533 3.554 3.407 3.554 1.875 0 3.408-1.6 3.408-3.554v-24.169h40.55v24.169c0 1.955 1.534 3.554 3.408 3.554 1.875 0 3.408-1.6 3.408-3.554v-33.907c0-.853.375-1.706.988-2.275l11.518-10.236c.75-.675 1.329-1.457 1.806-2.275l34.383-20.65c2.249-1.386 3.987-3.554 4.873-6.184l5.622-16.847c.239-.746.75-1.386 1.432-1.812h.034l.034-.036 23.001-13.861c1.636-.995 2.181-3.163 1.261-4.87-.92-1.705-3.033-2.274-4.668-1.314l-20.071 12.084-20.276-36.608 20.071-12.085c1.636-.995 2.181-3.163 1.261-4.869-.954-1.706-3.033-2.274-4.668-1.315l-23.036 13.861-5.145 3.093c-.716.426-1.602.533-2.386.213l-14.244-5.26c-2.59-.96-5.452-.676-7.803.746l-6.577 3.98c-.238-.284-.409-.603-.647-.888-2.147-2.239-4.975-3.447-8.008-3.447-1.602 0-3.101.355-4.464.96V243.8c0-3.128-1.159-6.078-3.306-8.352-2.146-2.24-4.975-3.448-7.973-3.448-5.623 0-10.257 4.3-11.143 9.916-1.432-.675-2.999-1.066-4.669-1.066-4.907 0-9.064 3.305-10.597 7.855l-4.907-2.915c-2.386-1.421-5.248-1.67-7.838-.71l-14.176 5.402c-.818.284-1.704.213-2.42-.213l-5.11-3.022c-.035 0-.035-.035-.035-.035s-.034 0-.068-.036l-23.103-13.648c-1.636-.96-3.715-.355-4.635 1.35-.92 1.707-.34 3.875 1.295 4.835l20.173 11.942-19.968 36.786-20.174-11.907c-1.635-.96-3.714-.355-4.634 1.35-1.022 1.813-.443 3.981 1.193 4.94zM70.653 252.61c.643-.393 1.42-.464 2.13-.214l14.128 5.28c2.67 1 5.577.714 8.01-.784l2.164-1.32 20.415 37.287c-.777.963-1.42 2.105-1.825 3.318l-5.543 16.877c-.338 1-1.014 1.856-1.86 2.39L79.037 333.25v-34.504c0-3.104-1.15-6.066-3.313-8.385-2.13-2.212-4.934-3.426-7.909-3.426-1.588 0-3.076.357-4.428.964v-30.044c0-.285-.033-.535-.067-.82l7.334-4.425zm-55.152.438c0-2.568 2-4.672 4.44-4.672 1.22 0 2.305.464 3.186 1.391.814.856 1.288 2.033 1.288 3.281V304.011c0 1.961 1.526 3.566 3.39 3.566s3.39-1.605 3.39-3.566V244.168c0-2.603 2-4.707 4.474-4.707 1.186 0 2.305.499 3.118 1.355.848.927 1.322 2.104 1.322 3.388V305.616c0 1.961 1.526 3.566 3.39 3.566s3.39-1.605 3.39-3.566v-47.718c0-2.567 2-4.672 4.44-4.672 1.22 0 2.339.5 3.186 1.356.475.499.847 1.105 1.085 1.89.135.428.237.927.237 1.426v54.173c0 1.961 1.525 3.566 3.39 3.566 1.864 0 3.39-1.605 3.39-3.566v-13.303c0-2.568 2-4.672 4.44-4.672 1.186 0 2.305.5 3.118 1.356.848.927 1.322 2.104 1.322 3.352v38.409c0 .357-.068.749-.271 1.177-.136.32-.373.642-.644.891l-11.457 10.271c-2.136 1.926-3.356 4.744-3.356 7.704v2.639H14.89c-.406-1.213-1.016-2.318-1.83-3.317L1.976 343.026c-.644-.784-1.017-1.783-1.017-2.889v-69.792c0-2.568 1.729-4.672 3.898-4.672 2.136 0 3.864 2.104 3.864 4.672v34.843c0 1.961 1.526 3.566 3.39 3.566s3.39-1.605 3.39-3.566v-52.14zm-38.167 4.048c2.441 1.414 5.357 1.661 8.036.672l14.104-5.372c.712-.247 1.492-.176 2.136.177l7.527 4.488v2.438c-1.22-.53-2.509-.848-3.899-.848-5.865 0-10.646 5.266-10.646 11.697v62.902l-9.358-5.725-20.886-12.333c-.881-.53-1.56-1.343-1.865-2.332l-5.696-16.68c-.407-1.201-1.05-2.332-1.83-3.286l20.173-37.105 2.204 1.307z" transform="translate(-1249 -1730) translate(1249 1498)"/>
            </g>
        </g>
    </g>
</svg>
