<svg xmlns="http://www.w3.org/2000/svg" width="131" height="160" viewBox="0 0 131 160">
    <g fill="none" fill-rule="evenodd">
        <g fill="#F6F6F6" fill-rule="nonzero">
            <path d="M89.338 369.185l36.298 38.037c3.236 3.37 5.086 7.945 4.855 13 0 5.056-2.08 9.87-5.78 13.482-3.468 3.37-8.092 5.296-12.716 5.296-4.624 0-9.016-1.926-12.484-5.537l-36.53-38.037c-1.849-1.926-1.849-5.056 0-6.74 1.85-1.927 4.856-1.927 6.474 0l36.298 38.277c3.237 3.611 8.785 3.37 12.484-.24 1.85-1.686 2.775-4.093 2.775-6.5 0-2.167-.694-4.334-2.312-6.02l-35.835-38.277c-1.85-1.926-1.85-5.056 0-6.74 1.85-1.927 4.855-1.927 6.473 0zM21.83 257c36.298 0 65.89 30.815 65.89 68.611 0 37.796-29.592 68.611-65.89 68.611-36.297 0-65.89-30.815-65.89-68.61 0-37.797 29.362-68.612 65.89-68.612zm0 9.63c-31.211 0-56.642 26.481-56.642 58.981s25.431 58.982 56.642 58.982c31.212 0 56.643-26.482 56.643-58.982S53.041 266.63 21.829 266.63zM-9.9 317.526l14.847 14.725v10.506h10.676l6.309 6.18 6.79-7.078h10.617v-11.151L45.772 324l7.398 7.546-3.377 3.522v17.524h-16.73L21.162 365l-7.318-7.63.968-1.01-3.363-3.335H-5.327v-16.476l-11.877-11.78 7.303-7.243zm33.058-8.631l13.454 14.026-13.454 14.026-13.453-14.026 13.453-14.026zM23.003 283l7.399 7.614-1.301 1.353.34-.335 3.378 3.343h16.808v16.555l11.822 11.7-7.318 7.244-14.878-14.725v-10.507H28.556l-6.26-6.196-6.772 7.048H4.908v11.128L-1.606 324l-7.319-7.614 3.378-3.515v-17.487l16.728-.084L23.003 283z" transform="translate(-990 -1741) translate(990 1484)"/>
        </g>
    </g>
</svg>
