<svg xmlns="http://www.w3.org/2000/svg" width="150" height="197" viewBox="0 0 150 197">
    <g fill="none" fill-rule="evenodd">
        <g fill="#F6F6F6" fill-rule="nonzero" stroke="#FFF" stroke-width="4">
            <path d="M22.082 357c3.917 0 7.312 2.379 8.617 5.814h0l5.745 14.007 15.146 1.322c3.918.264 7.051 2.907 8.096 6.343 1.044 3.7 0 7.664-2.873 10.043h0l-11.49 10.042 3.395 14.8c.783 3.7-.522 7.665-3.656 9.779-1.567 1.321-3.656 1.85-5.484 1.85-1.567 0-3.134-.529-4.7-1.321h0l-12.796-7.929-12.796 7.929c-3.134 1.85-7.051 1.585-10.185-.529-3.133-2.379-4.439-6.079-3.656-9.779h0l3.395-14.8-11.49-10.042c-2.872-2.643-3.917-6.343-2.872-10.043 1.305-3.436 4.439-6.079 8.095-6.343h0l15.146-1.322 5.745-14.007c1.567-3.435 4.962-5.814 8.618-5.814zm86.923 0c3.909 0 7.297 2.379 8.6 5.814h0l5.734 14.007 15.115 1.322c3.91.264 7.037 2.643 8.079 6.343 1.303 3.7.26 7.664-2.867 10.043h0L132.2 404.57l3.388 14.8c.782 3.7-.521 7.665-3.648 9.779-1.564 1.321-3.649 1.85-5.473 1.85-1.564 0-3.127-.529-4.691-1.321h0l-12.77-7.929-12.77 7.929c-3.127 1.85-7.037 1.585-10.164-.529-3.127-2.379-4.43-6.079-3.649-9.779h0l3.388-14.8-11.467-10.042c-2.866-2.643-3.909-6.343-2.866-10.043 1.303-3.436 4.43-6.079 8.079-6.343h0l15.115-1.322 5.734-14.007c1.563-3.435 4.951-5.814 8.6-5.814zm-174.923 0c3.917 0 7.312 2.378 8.617 5.814h0l5.745 14.006 15.146 1.321c3.656.264 6.79 2.907 8.096 6.342 1.044 3.7 0 7.664-2.873 10.042h0l-11.49 10.042 3.395 14.8c.783 3.699-.522 7.663-3.656 9.777-1.567 1.321-3.656 1.85-5.484 1.85-1.567 0-3.134-.529-4.7-1.322h0l-12.796-7.927-12.796 7.927c-3.134 1.85-7.051 1.85-10.185-.528-3.133-2.378-4.439-6.078-3.656-9.778h0l3.395-14.799-11.49-10.042c-2.872-2.642-3.917-6.342-2.872-10.042 1.305-3.435 4.439-6.078 8.095-6.342h0l15.146-1.321 5.745-14.006c1.567-3.436 4.962-5.814 8.618-5.814zm88.522 11.893l-5.223 12.421c-1.306 3.436-4.44 5.55-7.834 5.815h0l-13.318 1.057 9.923 8.721c2.612 2.379 3.656 5.814 2.873 9.25h0L5.89 419.371l11.49-7.135c3.134-1.85 6.79-1.85 9.662 0h0l11.49 7.135-3.133-13.214c-.784-3.436.26-6.871 2.872-9.25h0l10.707-8.721-13.318-1.057c-3.656-.529-6.529-2.643-7.834-5.815h0l-5.223-12.421zm86.922 0l-5.212 12.421c-1.303 3.436-4.43 5.55-7.819 5.815h0l-13.29 1.057 10.163 8.721c2.606 2.379 3.649 5.814 2.867 9.25h0l-3.127 13.214 11.466-7.135c3.128-1.85 6.776-1.85 9.643 0h0l11.467 7.135-3.127-13.214c-.782-3.436.26-6.871 2.866-9.25h0l10.425-8.721-13.291-1.057c-3.649-.529-6.516-2.643-7.819-5.815h0l-5.212-12.421zm-174.922-.001l-5.223 12.42c-1.306 3.436-4.44 5.55-7.834 5.814h0l-13.318 1.057 10.184 8.72c2.612 2.38 3.656 5.815 2.873 9.25h0l-3.134 13.213 11.49-7.135c1.306-.793 3.134-1.321 4.7-1.321 1.568 0 3.134.528 4.701 1.321h0l11.49 7.135-3.133-13.213c-.784-3.435.26-6.87 2.872-9.25h0l10.707-8.72-13.318-1.057c-3.656-.528-6.529-2.643-7.834-5.814h0l-5.223-12.42zM22.582 279c26.8 0 51.476 7.643 67.662 20.822h0l.315.273c3.52 3.13 5.523 7.242 5.523 11.85h0v19.768c0 8.434-6.9 15.287-15.39 15.287h0-115.955c-8.756 0-15.655-6.853-15.655-15.287h0v-19.767c0-4.744 2.122-9.225 5.837-12.124C-28.63 286.643-4.218 279 22.582 279zm0 11.07c-23.881 0-46.435 6.852-60.499 18.186-1.326 1.054-1.857 2.372-1.857 3.69h0v19.767c0 2.372 2.123 4.48 4.51 4.48h115.69c2.388 0 4.511-2.108 4.511-4.48h0v-19.767c0-1.582-.796-2.636-1.857-3.69-14.063-11.334-36.618-18.186-60.498-18.186zm.5-98.07c22.602 0 41 18.397 41 41s-18.398 41-41 41c-22.603 0-41-18.397-41-41s18.397-41 41-41zm0 10.776C6.524 202.776-6.88 216.442-6.88 233s13.404 29.962 29.962 29.962c16.557 0 29.961-13.667 29.961-30.225s-13.404-29.961-29.961-29.961z" transform="translate(-229 -1688) translate(229 1498)"/>
        </g>
    </g>
</svg>
